<?xml version="1.0" standalone="no"?>
<!DOCTYPE svg PUBLIC "-//W3C//DTD SVG 20010904//EN"
 "http://www.w3.org/TR/2001/REC-SVG-20010904/DTD/svg10.dtd">
<svg version="1.0" xmlns="http://www.w3.org/2000/svg"
 width="200.000000pt" height="200.000000pt" viewBox="0 0 200.000000 200.000000"
 preserveAspectRatio="xMidYMid meet">

<g transform="translate(0.000000,200.000000) scale(0.100000,-0.100000)"
fill="#000000" stroke="none">
<path d="M620 1614 c-1 -5 -5 -40 -10 -78 -8 -64 -7 -73 17 -120 39 -77 105
-166 123 -166 8 0 26 -7 38 -16 19 -13 22 -24 22 -85 0 -39 4 -69 10 -69 6 0
10 -49 10 -127 0 -164 18 -154 22 12 l3 120 28 3 28 3 -2 -122 c-2 -163 16
-168 25 -7 4 68 9 124 10 126 9 8 134 13 139 5 4 -5 7 -56 9 -112 1 -68 7
-109 16 -120 11 -13 13 4 9 112 l-5 128 32 -3 31 -3 8 -90 c11 -125 17 -159
27 -149 5 5 4 61 0 124 -6 72 -5 116 0 118 6 2 10 27 10 54 0 48 5 58 71 145
39 52 69 97 66 99 -3 3 -33 -2 -67 -11 -62 -16 -63 -16 -86 6 -21 20 -24 20
-24 5 0 -14 -6 -16 -31 -11 -30 7 -30 6 -18 -17 6 -12 21 -35 31 -51 15 -21
16 -28 6 -31 -13 -5 -328 -16 -328 -12 0 11 -111 239 -126 258 -26 34 -94 92
-94 82z m74 -120 c3 -8 2 -12 -4 -9 -6 3 -10 10 -10 16 0 14 7 11 14 -7z"/>
<path d="M1060 748 c-47 -77 -100 -259 -100 -343 0 -89 49 -108 120 -49 37 32
32 44 -7 16 -46 -32 -70 -36 -82 -13 -6 11 -11 31 -11 44 0 40 37 171 78 277
39 99 40 130 2 68z"/>
<path d="M1856 758 c-80 -122 -134 -378 -90 -423 21 -21 56 -13 102 22 47 35
33 40 -22 8 -38 -22 -49 -25 -61 -15 -32 26 -6 162 62 331 35 88 39 123 9 77z"/>
<path d="M456 609 c-22 -17 -25 -18 -19 -3 4 12 2 15 -8 12 -34 -11 -149 -288
-120 -288 6 0 11 6 11 13 0 33 82 176 126 222 64 65 67 49 20 -104 -20 -63
-33 -117 -31 -120 10 -10 24 16 50 94 15 43 34 85 43 93 31 24 106 72 109 68
2 -1 -13 -50 -32 -109 -40 -120 -41 -130 -19 -148 14 -12 23 -10 62 12 l45 25
29 -29 c22 -23 34 -28 55 -23 44 12 72 39 103 100 49 98 41 177 -22 199 -26 9
-22 -2 8 -26 24 -18 26 -25 20 -66 -8 -60 -50 -145 -82 -166 -37 -24 -70 -13
-84 30 -10 31 -8 42 13 89 14 31 40 65 61 81 46 35 39 45 -9 15 -42 -26 -95
-112 -95 -156 0 -25 -7 -34 -40 -53 -68 -38 -69 -22 -10 142 25 70 29 91 19
103 -19 23 -35 17 -118 -43 -24 -18 -25 -18 -18 6 13 52 -20 67 -67 30z"/>
<path d="M1471 572 c-16 -32 -34 -78 -41 -102 -13 -50 -40 -84 -83 -107 -22
-11 -32 -12 -43 -2 -21 17 -17 54 16 149 33 91 34 100 21 100 -18 0 -64 -124
-69 -186 -7 -97 26 -119 101 -69 33 23 37 24 37 7 0 -46 36 -46 89 2 l23 21
-7 -32 c-14 -65 11 -31 45 63 28 77 42 103 77 135 47 43 72 49 80 19 7 -27 25
-26 21 1 -5 34 -32 46 -70 31 -25 -9 -34 -9 -40 1 -12 20 -27 -3 -62 -95 -24
-64 -41 -92 -72 -121 -54 -48 -67 -48 -58 1 5 29 44 140 81 230 3 6 0 12 -6
12 -6 0 -24 -26 -40 -58z"/>
<path d="M285 611 c-70 -17 -115 -53 -115 -92 0 -23 8 -32 40 -49 46 -23 50
-44 19 -84 -13 -17 -30 -26 -49 -26 -33 0 -48 15 -56 58 -8 38 -24 42 -24 7 0
-33 25 -81 45 -89 49 -18 99 6 121 60 19 46 5 79 -40 95 -20 7 -36 19 -36 26
0 30 84 80 138 82 12 1 22 6 22 11 0 11 -21 11 -65 1z"/>
</g>
</svg>
